<?xml version="1.0" encoding="UTF-8" standalone="no"?>
<!-- Created with Inkscape (http://www.inkscape.org/) -->

<svg
   version="1.1"
   id="svg1"
   width="199.20215mm"
   height="324.26999mm"
   viewBox="0 0 752.89001 1225.5868"
   sodipodi:docname="little-box.svg"
   inkscape:version="1.4.2 (ebf0e940, 2025-05-08)"
   xmlns:inkscape="http://www.inkscape.org/namespaces/inkscape"
   xmlns:sodipodi="http://sodipodi.sourceforge.net/DTD/sodipodi-0.dtd"
   xmlns="http://www.w3.org/2000/svg"
   xmlns:svg="http://www.w3.org/2000/svg">
  <defs
     id="defs1" />
  <sodipodi:namedview
     id="namedview1"
     pagecolor="#ffffff"
     bordercolor="#000000"
     borderopacity="0.25"
     inkscape:showpageshadow="2"
     inkscape:pageopacity="0.0"
     inkscape:pagecheckerboard="0"
     inkscape:deskcolor="#d1d1d1"
     inkscape:zoom="0.71394337"
     inkscape:cx="376.78058"
     inkscape:cy="166.67989"
     inkscape:window-width="1456"
     inkscape:window-height="921"
     inkscape:window-x="60"
     inkscape:window-y="33"
     inkscape:window-maximized="0"
     inkscape:current-layer="layer2"
     inkscape:document-units="mm">
    <inkscape:page
       x="0"
       y="0"
       inkscape:label="1"
       id="page1"
       width="752.89001"
       height="1225.5868"
       margin="0"
       bleed="0" />
  </sodipodi:namedview>
  <g
     id="g1"
     inkscape:groupmode="layer"
     inkscape:label="1">
    <path
       id="path3"
       d="m 226.29434,1078.8337 v -0.2304"
       style="display:inline;fill:none;stroke:#000000;stroke-width:0.096;stroke-linecap:butt;stroke-linejoin:miter;stroke-miterlimit:10;stroke-dasharray:none;stroke-opacity:1"
       sodipodi:insensitive="true" />
    <path
       id="path52"
       style="display:inline;fill:none;stroke:#000000;stroke-width:0.096;stroke-linecap:butt;stroke-linejoin:miter;stroke-miterlimit:10;stroke-dasharray:none;stroke-opacity:1"
       d="m 617.77315,1067.1289 v -26.8818 m 0,27.1122 v -0.2304 m 0,51.8839 v -26.0571 m 0,51.8839 v -0.2304 m 0,26.1745 v -25.9441 m -25.94414,-104.5925 h 25.94414 m -25.94414,27.1122 h 25.94414 m 0,25.5964 h -25.94414 m 0,0 v -25.5964 m 0,51.6535 h 25.94414 m -25.94414,25.5964 h 25.94414 m -25.94414,0 v -25.5964 m 25.94414,51.7709 h -25.94414 m -48.82432,-130.5366 h 48.82432 m -48.82432,0 v 26.8818 m 0,103.6548 h 48.82432 m -48.82432,-25.9441 v 25.9441 m -48.36353,-25.9441 h 48.36353 m -48.36353,25.9441 v -25.9441 m 48.36353,-77.7107 h -48.36353 m 0,0 v -26.8818 m -48.82432,130.5366 h 48.82432 m -48.82432,-25.9441 v 25.9441 m 48.82432,-130.5366 h -48.82432 m 0,0 v 26.8818 m -48.36352,77.7107 h 48.36352 m -48.36352,25.9441 v -25.9441 m 48.36352,-77.7107 h -48.36352 m 0,0 v -26.8818 m -48.82433,130.5366 h 48.82433 m -48.82433,-25.9441 v 25.9441 m 48.82433,-130.5366 h -48.82433 m 0,0 v 26.8818 m -48.36352,77.7107 h 48.36352 m -48.36352,25.9441 v -25.9441 m 48.36352,-77.7107 h -48.36352 m 0,0 v -26.8818 m -48.82433,0 h 48.82433 m -48.82433,27.1122 v 25.5964 m 0,26.0571 v 25.5964 m 0,26.1745 h 48.82433 m -76.17485,-130.5366 h 27.35052 m -27.35052,26.8818 v -26.8818 m 27.35052,27.1122 h -27.35052 m 0,0 v -0.2304 m 27.35052,25.8268 h -27.35052 m 0,26.0571 h 27.35052 m -27.35052,-26.0571 v 26.0571 m 0,51.7709 h 27.35052 m -27.35052,0 v -25.9441 l 27.35052,-0.2304"
       sodipodi:nodetypes="cccccccccccccccccccccccccccccccccccccccccccccccccccccccccccccccccccccccccccccccccccccccccccccccccccc"
       inkscape:label="bottom" />
    <path
       id="path104"
       style="display:inline;fill:none;stroke:#000000;stroke-width:0.096;stroke-linecap:butt;stroke-linejoin:miter;stroke-miterlimit:10;stroke-dasharray:none;stroke-opacity:1"
       d="m 596.56475,743.35329 v -48.82433 m 0,146.01217 v -48.82432 m 0,146.01217 v -48.82432 m 0,-194.3757 H 571.5582 m 0,0 v -48.59392 m 0,97.41825 h 25.00655 m 0,48.36352 H 571.5582 m 0,0 v -48.36352 m 0,97.18784 h 25.00655 m 0,48.36353 H 571.5582 m 0,0 v -48.36353 m 0,97.18785 h 25.00655 m -25.00655,48.59393 v -48.59393 m 0,-291.79394 h -48.59392 m 0,0 v -27.35052 m 0,367.73839 h 48.59392 m -48.59392,27.35049 v -27.35049 m 0,-367.73839 h -48.82433 m 0,0 v 27.35052 m 0,367.73836 h 48.82433 m -48.82433,-27.35049 v 27.35049 m 0,-367.73836 h -48.36352 m 0,0 v -27.35052 m 0,367.73839 h 48.36352 m -48.36352,27.35049 v -27.35049 m 0,-367.73839 h -48.82432 m 0,0 v 27.35052 m 0,367.73836 h 48.82432 m -48.82432,-27.35049 v 27.35049 m 0,-367.73836 h -48.36353 m 0,0 v -27.35052 m 0,367.73839 h 48.36353 m -48.36353,27.35049 v -27.35049 m 0,-367.73839 h -48.82432 m 0,0 v 27.35052 m 0,367.73836 h 48.82432 m -48.82432,-27.35049 v 27.35049 M 231.17033,645.93504 v 48.59392 m 0,48.82433 v 48.36352 m 0,48.82432 v 48.36353 m 0,97.41825 h 48.59393 m -48.59393,-48.59393 v 48.59393 m 48.59393,-340.38787 h -48.59393 m 0,48.59392 h -27.35052 m 0,48.82433 h 27.35052 m -27.35052,-48.82433 v 48.82433 m 27.35052,48.36352 h -27.35052 m 0,48.82432 h 27.35052 m -27.35052,-48.82432 v 48.82432 m 27.35052,48.36353 h -27.35052 m 0,48.82432 h 27.35052 m -27.35052,-48.82432 v 48.82432"
       sodipodi:nodetypes="cccccccccccccccccccccccccccccccccccccccccccccccccccccccccccccccccccccccccccccccccccccccccccccccccccccccc"
       inkscape:label="back" />
    <path
       id="path156"
       style="display:inline;fill:none;stroke:#000000;stroke-width:0.096;stroke-linecap:butt;stroke-linejoin:miter;stroke-miterlimit:10;stroke-dasharray:none;stroke-opacity:1"
       d="m 597.97114,498.7166 v -25.47534 m 0,25.70574 v -0.2304 m 0,51.88395 v -26.05717 m 0,51.88394 v -0.2304 m 0,28.51851 V 576.42732 M 571.5582,473.24126 h 26.41294 M 571.5582,498.947 h 26.41294 m 0,25.59638 H 571.5582 m 0,0 V 498.947 m 0,51.65355 h 26.41294 m -26.41294,25.59637 h 26.41294 m -26.41294,0 v -25.59637 m 0,54.11488 h 26.41294 M 522.73388,473.24126 h 48.82432 m -48.82432,0 v 25.47534 m 0,105.99883 h 48.82432 m -48.82432,-28.28811 v 28.28811 m -48.36353,-28.28811 h 48.36353 m -48.36353,28.28811 v -28.28811 m 48.36353,-77.71072 h -48.36353 m 0,0 v -25.47534 m -48.82432,131.47417 h 48.82432 m -48.82432,-28.28811 v 28.28811 m 48.82432,-131.47417 h -48.82432 m 0,0 v 25.47534 m -48.36352,77.71072 h 48.36352 m -48.36352,28.28811 v -28.28811 m 48.36352,-77.71072 h -48.36352 m 0,0 v -25.47534 m -48.82433,131.47417 h 48.82433 m -48.82433,-28.28811 v 28.28811 m 48.82433,-131.47417 h -48.82433 m 0,0 v 25.47534 m -48.36352,77.71072 h 48.36352 m -48.36352,28.28811 v -28.28811 m 48.36352,-77.71072 h -48.36352 m 0,0 v -25.47534 m -48.82433,0 h 48.82433 M 231.17033,498.947 v 25.59638 m 0,26.05717 v 25.59637 m 0,28.51851 h 48.82433 M 204.75739,473.24126 h 26.41294 m -26.41294,25.47534 v -25.47534 m 26.41294,25.70574 h -26.41294 m 0,0 v -0.2304 m 26.41294,25.82678 h -26.41294 m 0,26.05717 h 26.41294 m -26.41294,-26.05717 v 26.05717 m 26.41294,25.59637 h -26.41294 m 0,0.2304 v -0.2304 m 0,28.51851 h 26.41294 m -26.41294,0 v -28.28811"
       sodipodi:nodetypes="cccccccccccccccccccccccccccccccccccccccccccccccccccccccccccccccccccccccccccccccccccccccccccccccccccccccc"
       inkscape:label="top" />
    <path
       id="path208"
       style="display:inline;fill:none;stroke:#000000;stroke-width:0.096;stroke-linecap:butt;stroke-linejoin:miter;stroke-miterlimit:10;stroke-dasharray:none;stroke-opacity:1"
       d="M 557.16571,135.00118 V 86.176855 m 0,146.012175 v -48.82432 m 0,146.01217 v -48.82431 m 0,-194.375715 h -27.81932 m 0,0 V 37.582941 m 0,97.418239 h 27.81932 m 0,48.36353 h -27.81932 m 0,0 v -48.36353 m 0,97.18785 h 27.81932 m 0,48.36354 h -27.81932 m 0,0 v -48.36354 m 0,97.18785 h 27.81932 m -27.81932,48.59394 v -48.59394 m 0,-291.793939 h -48.59392 m 0,0 V 10.232416 m 0,367.738404 h 48.59392 m -48.59392,28.75691 v -28.75691 m 0,-367.738404 h -48.82433 m 0,0 v 27.350525 m 0,369.144789 h 48.82433 m -48.82433,-28.75691 v 28.75691 m 0,-369.144789 h -48.36352 m 0,0 V 10.232416 m 0,367.738404 h 48.36352 m -48.36352,28.75691 v -28.75691 m 0,-367.738404 H 334.7403 m 0,0 v 27.350525 m 0,369.144789 h 48.82432 M 334.7403,377.97082 v 28.75691 m 0,-369.144789 h -48.36353 m 0,0 V 10.232416 m 0,367.738404 h 48.36353 m -48.36353,28.75691 v -28.75691 m 0,-367.738404 h -48.82432 m 0,0 v 27.350525 m 0,369.144789 h 48.82432 m -48.82432,-28.75691 v 28.75691 M 188.95852,37.582941 v 48.593914 m 0,48.824325 v 48.36353 m 0,48.82432 v 48.36354 m 0,97.41825 h 48.59393 m -48.59393,-48.59394 v 48.59394 M 237.55245,37.582941 h -48.59393 m 0,48.593914 h -28.75691 m 0,48.824325 h 28.75691 M 160.20161,86.176855 v 48.824325 m 28.75691,48.36353 h -28.75691 m 0,48.82432 h 28.75691 m -28.75691,-48.82432 v 48.82432 m 28.75691,48.36354 h -28.75691 m 0,48.82431 h 28.75691 m -28.75691,-48.82431 v 48.82431"
       sodipodi:nodetypes="cccccccccccccccccccccccccccccccccccccccccccccccccccccccccccccccccccccccccccccccccccccccccccccccccccccccc"
       inkscape:label="front" />
    <path
       id="path252"
       style="display:inline;fill:none;stroke:#000000;stroke-width:0.096;stroke-linecap:butt;stroke-linejoin:miter;stroke-miterlimit:10;stroke-dasharray:none;stroke-opacity:1"
       d="M 180.97699,652.32892 V 603.5046 m 0,146.01217 v -48.82432 m 0,146.01217 v -48.82433 m 0,146.01218 v -48.82433 m 0,-291.56354 h -25.94414 m 0,0 v -26.41294 m 0,75.23726 h 25.94414 m 0,48.36353 h -25.94414 m 0,0 v -48.36353 m 0,97.18785 h 25.94414 m 0,48.36352 h -25.94414 m 0,0 v -48.36352 m 0,97.18785 h 25.94414 m 0,48.36352 h -25.94414 m 0,0 v -48.36352 m 0,97.18785 h 25.94414 m -25.94414,26.88173 v -26.88173 m 0,-366.80081 h -26.05718 m 0,0 v 26.41294 m 0,367.2696 h 26.05718 m -26.05718,-26.88173 v 26.88173 m 0,-367.2696 H 103.3793 m 0,0 v -26.41294 m 0,366.80081 h 25.59637 M 103.3793,970.7742 v -26.88173 m 0,-366.80081 H 77.322129 m 0,0 v 26.41294 m 0,48.82432 v 48.36353 m 0,48.82432 v 48.36352 m 0,48.82433 v 48.36352 m 0,75.70606 H 103.3793 M 77.322129,943.89247 v 26.88173 m 0,-367.2696 H 50.909194 m 0,48.82432 H 77.322129 M 50.909194,603.5046 v 48.82432 m 26.412935,48.36353 H 50.909194 m 0,48.82432 H 77.322129 M 50.909194,700.69245 v 48.82432 m 26.412935,48.36352 H 50.909194 m 0,48.82433 H 77.322129 M 50.909194,797.88029 v 48.82433 m 26.412935,48.36352 H 50.909194 m 0,48.82433 H 77.322129 M 50.909194,895.06814 v 48.82433"
       sodipodi:nodetypes="cccccccccccccccccccccccccccccccccccccccccccccccccccccccccccccccccccccccccccccccccccccccc"
       inkscape:label="left" />
    <path
       id="path296"
       style="display:inline;fill:none;stroke:#000000;stroke-width:0.096;stroke-linecap:butt;stroke-linejoin:miter;stroke-miterlimit:10;stroke-dasharray:none;stroke-opacity:1"
       d="m 744.72077,692.10746 v -48.82432 m 0,146.01217 v -48.82432 m 0,146.01217 v -48.82433 m 0,146.01218 v -48.82433 m 0,-291.56354 h -25.94414 m 0,0 v -25.00655 m 0,73.83087 h 25.94414 m 0,48.36353 h -25.94414 m 0,0 v -48.36353 m 0,97.18785 h 25.94414 m 0,48.36352 h -25.94414 m 0,0 v -48.36352 m 0,97.18785 h 25.94414 m 0,48.36352 h -25.94414 m 0,0 v -48.36352 m 0,97.18785 h 25.94414 m -25.94414,25.47539 v -25.47539 m 0,-365.39442 h -26.05717 m 0,0 v 25.00655 m 0,365.86326 h 26.05717 m -26.05717,-25.47539 v 25.47539 m 0,-365.86326 h -25.59637 m 0,0 v -25.00655 m 0,365.39442 h 25.59637 m -25.59637,25.47539 v -25.47539 m 0,-365.39442 h -26.05718 m 0,0 v 25.00655 m 0,48.82432 v 48.36353 m 0,48.82432 v 48.36352 m 0,48.82433 v 48.36352 m 0,74.29972 h 26.05718 m -26.05718,-25.47539 v 25.47539 m 0,-365.86326 h -24.53776 m 0,48.82432 h 24.53776 m -24.53776,-48.82432 v 48.82432 m 24.53776,48.36353 h -24.53776 m 0,48.82432 h 24.53776 m -24.53776,-48.82432 v 48.82432 m 24.53776,48.36352 h -24.53776 m 0,48.82433 h 24.53776 m -24.53776,-48.82433 v 48.82433 m 24.53776,48.36352 h -24.53776 m 0,48.82433 h 24.53776 m -24.53776,-48.82433 v 48.82433"
       sodipodi:nodetypes="cccccccccccccccccccccccccccccccccccccccccccccccccccccccccccccccccccccccccccccccccccccccc"
       inkscape:label="right" />
  </g>
  <g
     inkscape:groupmode="layer"
     id="layer4"
     inkscape:label="about box">
    <path
       id="path297"
       d="M 13.333333,1196.278 H 200 V 996.27803 H 13.333333 Z"
       style="display:inline;fill:none;stroke:#0070e0;stroke-width:0.755905;stroke-linecap:butt;stroke-linejoin:miter;stroke-miterlimit:10;stroke-dasharray:none;stroke-opacity:1" />
    <text
       id="text297"
       xml:space="preserve"
       x="26.666668"
       y="1011.27"
       style="font-size:16px;stroke-width:1.33333"><tspan
         id="tspan297"
         style="font-variant:normal;font-weight:normal;font-size:8px;font-family:Helvetica;writing-mode:lr-tb;fill:#0070e0;fill-opacity:1;fill-rule:nonzero;stroke:none;stroke-width:1.33333"
         x="26.666668"
         dx="0 0 0 0 0 0 0 0 0 0 0 0 0 0 0 0 0 0 0 0 0 0 0 0 0 0 -0.16"
         y="1011.27">Made with Laser Cutter Ruby Gem (v1.0.3)</tspan></text>
    <text
       id="text298"
       xml:space="preserve"
       x="26.666668"
       y="1020.518"
       style="font-size:16px;stroke-width:1.33333"><tspan
         id="tspan298"
         style="font-variant:normal;font-weight:normal;font-size:8px;font-family:Helvetica;writing-mode:lr-tb;fill:#0070e0;fill-opacity:1;fill-rule:nonzero;stroke:none;stroke-width:1.33333"
         x="26.666668"
         dx="0 0 0 0 0 0 0 0 0 0 0 0 0 -0.079999998 -0.16 0 0 0 -0.24000001 0 0 0 0.12 0 -0.16 0 0 0 0 0 0 0 0 0 0 -0.079999998"
         y="1020.518">Credits to Prawn for ruby PDF generation,</tspan></text>
    <text
       id="text299"
       xml:space="preserve"
       x="26.666668"
       y="1029.766"
       style="font-size:16px;stroke-width:1.33333"><tspan
         id="tspan299"
         style="font-variant:normal;font-weight:normal;font-size:8px;font-family:Helvetica;writing-mode:lr-tb;fill:#0070e0;fill-opacity:1;fill-rule:nonzero;stroke:none;stroke-width:1.33333"
         x="26.666668"
         dx="0 0 0 0 0 0 -0.24000001 0 0 0 -0.16 0 0 0 -0.24000001 0 0 0 0 0 0 0 0 -0.079999998"
         y="1029.766">and BoxMaker for inspiration.</tspan></text>
    <text
       id="text300"
       xml:space="preserve"
       x="26.666668"
       y="1048.2621"
       style="font-size:16px;stroke-width:1.33333"><tspan
         id="tspan300"
         style="font-variant:normal;font-weight:normal;font-size:8px;font-family:Helvetica;writing-mode:lr-tb;fill:#0070e0;fill-opacity:1;fill-rule:nonzero;stroke:none;stroke-width:1.33333"
         x="26.666668"
         dx="0 0 0 0 0 0 0 0 0 0 0 0 0 0 0 0 0 0 -0.16 0 0 0 -0.24000001"
         y="1048.2621">Online: http://makeabox.io/</tspan></text>
    <text
       id="text301"
       xml:space="preserve"
       x="26.666668"
       y="1057.51"
       style="font-size:16px;stroke-width:1.33333"><tspan
         id="tspan301"
         style="font-variant:normal;font-weight:normal;font-size:8px;font-family:Helvetica;writing-mode:lr-tb;fill:#0070e0;fill-opacity:1;fill-rule:nonzero;stroke:none;stroke-width:1.33333"
         x="26.666668"
         dx="0 0 0 0 0 0 0 0 0 0 0 0 0 0 0 0 0 0 0 0 0 0 -0.31999999"
         y="1057.51">Source: https://github.com/kigster/laser-cutter</tspan></text>
    <text
       id="text302"
       xml:space="preserve"
       x="81.765335"
       y="1076.3126"
       style="font-size:16px;stroke-width:1.33333"><tspan
         id="tspan302"
         style="font-variant:normal;font-weight:normal;font-size:9.33333px;font-family:Helvetica;writing-mode:lr-tb;fill:#0070e0;fill-opacity:1;fill-rule:nonzero;stroke:none;stroke-width:1.33333"
         x="81.765335"
         y="1076.3126">units: </tspan></text>
    <text
       id="text303"
       xml:space="preserve"
       x="79.693336"
       y="1087.1021"
       style="font-size:16px;stroke-width:1.33333"><tspan
         id="tspan303"
         style="font-variant:normal;font-weight:normal;font-size:9.33333px;font-family:Helvetica;writing-mode:lr-tb;fill:#0070e0;fill-opacity:1;fill-rule:nonzero;stroke:none;stroke-width:1.33333"
         x="79.693336"
         y="1087.1021">width: </tspan></text>
    <text
       id="text304"
       xml:space="preserve"
       x="76.053329"
       y="1097.8914"
       style="font-size:16px;stroke-width:1.33333"><tspan
         id="tspan304"
         style="font-variant:normal;font-weight:normal;font-size:9.33333px;font-family:Helvetica;writing-mode:lr-tb;fill:#0070e0;fill-opacity:1;fill-rule:nonzero;stroke:none;stroke-width:1.33333"
         x="76.053329"
         y="1097.8914">height: </tspan></text>
    <text
       id="text305"
       xml:space="preserve"
       x="78.125336"
       y="1108.6807"
       style="font-size:16px;stroke-width:1.33333"><tspan
         id="tspan305"
         style="font-variant:normal;font-weight:normal;font-size:9.33333px;font-family:Helvetica;writing-mode:lr-tb;fill:#0070e0;fill-opacity:1;fill-rule:nonzero;stroke:none;stroke-width:1.33333"
         x="78.125336"
         y="1108.6807">depth: </tspan></text>
    <text
       id="text306"
       xml:space="preserve"
       x="62.762669"
       y="1119.4701"
       style="font-size:16px;stroke-width:1.33333"><tspan
         id="tspan306"
         style="font-variant:normal;font-weight:normal;font-size:9.33333px;font-family:Helvetica;writing-mode:lr-tb;fill:#0070e0;fill-opacity:1;fill-rule:nonzero;stroke:none;stroke-width:1.33333"
         x="62.762669"
         dx="0 0 0 0 -0.18666667"
         y="1119.4701">thickness: </tspan></text>
    <text
       id="text307"
       xml:space="preserve"
       x="78.648003"
       y="1130.2594"
       style="font-size:16px;stroke-width:1.33333"><tspan
         id="tspan307"
         style="font-variant:normal;font-weight:normal;font-size:9.33333px;font-family:Helvetica;writing-mode:lr-tb;fill:#0070e0;fill-opacity:1;fill-rule:nonzero;stroke:none;stroke-width:1.33333"
         x="78.648003"
         y="1130.2594">notch: </tspan></text>
    <text
       id="text308"
       xml:space="preserve"
       x="86.105331"
       y="1141.0487"
       style="font-size:16px;stroke-width:1.33333"><tspan
         id="tspan308"
         style="font-variant:normal;font-weight:normal;font-size:9.33333px;font-family:Helvetica;writing-mode:lr-tb;fill:#0070e0;fill-opacity:1;fill-rule:nonzero;stroke:none;stroke-width:1.33333"
         x="86.105331"
         dx="0 -0.18666667"
         y="1141.0487">kerf: </tspan></text>
    <text
       id="text309"
       xml:space="preserve"
       x="76.249336"
       y="1151.838"
       style="font-size:16px;stroke-width:1.33333"><tspan
         id="tspan309"
         style="font-variant:normal;font-weight:normal;font-size:9.33333px;font-family:Helvetica;writing-mode:lr-tb;fill:#0070e0;fill-opacity:1;fill-rule:nonzero;stroke:none;stroke-width:1.33333"
         x="76.249336"
         dx="0 0 0 0 0 -0.18666667"
         y="1151.838">stroke: </tspan></text>
    <text
       id="text310"
       xml:space="preserve"
       x="68.269333"
       y="1162.6273"
       style="font-size:16px;stroke-width:1.33333"><tspan
         id="tspan310"
         style="font-variant:normal;font-weight:normal;font-size:9.33333px;font-family:Helvetica;writing-mode:lr-tb;fill:#0070e0;fill-opacity:1;fill-rule:nonzero;stroke:none;stroke-width:1.33333"
         x="68.269333"
         y="1162.6273">padding: </tspan></text>
    <text
       id="text311"
       xml:space="preserve"
       x="72.954666"
       y="1173.4166"
       style="font-size:16px;stroke-width:1.33333"><tspan
         id="tspan311"
         style="font-variant:normal;font-weight:normal;font-size:9.33333px;font-family:Helvetica;writing-mode:lr-tb;fill:#0070e0;fill-opacity:1;fill-rule:nonzero;stroke:none;stroke-width:1.33333"
         x="72.954666"
         y="1173.4166">margin: </tspan></text>
    <text
       id="text312"
       xml:space="preserve"
       x="59.076"
       y="1184.2061"
       style="font-size:16px;stroke-width:1.33333"><tspan
         id="tspan312"
         style="font-variant:normal;font-weight:normal;font-size:9.33333px;font-family:Helvetica;writing-mode:lr-tb;fill:#0070e0;fill-opacity:1;fill-rule:nonzero;stroke:none;stroke-width:1.33333"
         x="59.076"
         dx="0 0 0 0 0 0 0 0 -0.13999999"
         y="1184.2061">page_size: </tspan></text>
    <text
       id="text313"
       xml:space="preserve"
       x="106.66667"
       y="1076.3126"
       style="font-size:16px;stroke-width:1.33333"><tspan
         id="tspan313"
         style="font-variant:normal;font-weight:normal;font-size:9.33333px;font-family:Helvetica;writing-mode:lr-tb;fill:#0070e0;fill-opacity:1;fill-rule:nonzero;stroke:none;stroke-width:1.33333"
         x="106.66667"
         y="1076.3126">mm</tspan></text>
    <text
       id="text314"
       xml:space="preserve"
       x="106.66667"
       y="1087.1021"
       style="font-size:16px;stroke-width:1.33333"><tspan
         id="tspan314"
         style="font-variant:normal;font-weight:normal;font-size:9.33333px;font-family:Helvetica;writing-mode:lr-tb;fill:#0070e0;fill-opacity:1;fill-rule:nonzero;stroke:none;stroke-width:1.33333"
         x="106.66667"
         y="1087.1021">90.0</tspan></text>
    <text
       id="text315"
       xml:space="preserve"
       x="106.66667"
       y="1097.8914"
       style="font-size:16px;stroke-width:1.33333"><tspan
         id="tspan315"
         style="font-variant:normal;font-weight:normal;font-size:9.33333px;font-family:Helvetica;writing-mode:lr-tb;fill:#0070e0;fill-opacity:1;fill-rule:nonzero;stroke:none;stroke-width:1.33333"
         x="106.66667"
         y="1097.8914">90.0</tspan></text>
    <text
       id="text316"
       xml:space="preserve"
       x="106.66667"
       y="1108.6807"
       style="font-size:16px;stroke-width:1.33333"><tspan
         id="tspan316"
         style="font-variant:normal;font-weight:normal;font-size:9.33333px;font-family:Helvetica;writing-mode:lr-tb;fill:#0070e0;fill-opacity:1;fill-rule:nonzero;stroke:none;stroke-width:1.33333"
         x="106.66667"
         y="1108.6807">20.5</tspan></text>
    <text
       id="text317"
       xml:space="preserve"
       x="106.66667"
       y="1119.4701"
       style="font-size:16px;stroke-width:1.33333"><tspan
         id="tspan317"
         style="font-variant:normal;font-weight:normal;font-size:9.33333px;font-family:Helvetica;writing-mode:lr-tb;fill:#0070e0;fill-opacity:1;fill-rule:nonzero;stroke:none;stroke-width:1.33333"
         x="106.66667"
         y="1119.4701">5.5</tspan></text>
    <text
       id="text318"
       xml:space="preserve"
       x="106.66667"
       y="1130.2594"
       style="font-size:16px;stroke-width:1.33333"><tspan
         id="tspan318"
         style="font-variant:normal;font-weight:normal;font-size:9.33333px;font-family:Helvetica;writing-mode:lr-tb;fill:#0070e0;fill-opacity:1;fill-rule:nonzero;stroke:none;stroke-width:1.33333"
         x="106.66667"
         y="1130.2594">16.5</tspan></text>
    <text
       id="text319"
       xml:space="preserve"
       x="106.66667"
       y="1141.0487"
       style="font-size:16px;stroke-width:1.33333"><tspan
         id="tspan319"
         style="font-variant:normal;font-weight:normal;font-size:9.33333px;font-family:Helvetica;writing-mode:lr-tb;fill:#0070e0;fill-opacity:1;fill-rule:nonzero;stroke:none;stroke-width:1.33333"
         x="106.66667"
         y="1141.0487">0.06096</tspan></text>
    <text
       id="text320"
       xml:space="preserve"
       x="106.66667"
       y="1151.838"
       style="font-size:16px;stroke-width:1.33333"><tspan
         id="tspan320"
         style="font-variant:normal;font-weight:normal;font-size:9.33333px;font-family:Helvetica;writing-mode:lr-tb;fill:#0070e0;fill-opacity:1;fill-rule:nonzero;stroke:none;stroke-width:1.33333"
         x="106.66667"
         y="1151.838">0.0254</tspan></text>
    <text
       id="text321"
       xml:space="preserve"
       x="106.66667"
       y="1162.6273"
       style="font-size:16px;stroke-width:1.33333"><tspan
         id="tspan321"
         style="font-variant:normal;font-weight:normal;font-size:9.33333px;font-family:Helvetica;writing-mode:lr-tb;fill:#0070e0;fill-opacity:1;fill-rule:nonzero;stroke:none;stroke-width:1.33333"
         x="106.66667"
         y="1162.6273">2.54</tspan></text>
    <text
       id="text322"
       xml:space="preserve"
       x="106.66667"
       y="1173.4166"
       style="font-size:16px;stroke-width:1.33333"><tspan
         id="tspan322"
         style="font-variant:normal;font-weight:normal;font-size:9.33333px;font-family:Helvetica;writing-mode:lr-tb;fill:#0070e0;fill-opacity:1;fill-rule:nonzero;stroke:none;stroke-width:1.33333"
         x="106.66667"
         y="1173.4166">3.175</tspan></text>
    <text
       id="text323"
       xml:space="preserve"
       x="106.66667"
       y="1184.2061"
       style="font-size:16px;display:inline;stroke-width:1.33333"><tspan
         id="tspan323"
         style="font-variant:normal;font-weight:normal;font-size:9.33333px;font-family:Helvetica;writing-mode:lr-tb;fill:#0070e0;fill-opacity:1;fill-rule:nonzero;stroke:none;stroke-width:1.33333"
         x="106.66667"
         y="1184.2061">custom</tspan></text>
  </g>
  <g
     inkscape:groupmode="layer"
     id="layer2"
     inkscape:label="screen cutout">
    <rect
       style="opacity:1;fill:none;stroke:#000000;stroke-width:0.755905;stroke-dasharray:none"
       id="rect2"
       width="271.23395"
       height="100.91336"
       x="223.06668"
       y="82.657684" />
  </g>
  <g
     inkscape:groupmode="layer"
     id="layer1"
     inkscape:label="mode switch">
    <circle
       style="opacity:1;fill:none;stroke:#000000"
       id="path1"
       cx="296.51373"
       cy="269.82288"
       r="17.00787"
       inkscape:label="cutout" />
    <circle
       style="display:none;opacity:1;fill:none;stroke:#000000"
       id="circle2"
       cx="296.51373"
       cy="269.82288"
       inkscape:label="knob outline"
       r="37.795265" />
    <circle
       style="display:none;opacity:1;fill:none;stroke:#5055e5;stroke-opacity:1"
       id="circle3"
       cx="358.07166"
       cy="180.30377"
       inkscape:label="alignment ring"
       r="49.133846"
       transform="rotate(15.574577)" />
    <circle
       style="opacity:1;fill:#000000;fill-opacity:1;stroke:none;stroke-opacity:1"
       id="path5"
       cx="400.62283"
       cy="155.73686"
       inkscape:label="position dot"
       transform="rotate(15.574577)"
       r="3.7795267" />
    <circle
       style="opacity:1;fill:#000000;fill-opacity:1;stroke:none;stroke-opacity:1"
       id="circle5"
       cx="382.63858"
       cy="137.75261"
       inkscape:label="position dot"
       transform="rotate(15.574577)"
       r="3.7795267" />
    <circle
       style="opacity:1;fill:#000000;fill-opacity:1;stroke:none;stroke-opacity:1"
       id="circle6"
       cx="358.07166"
       cy="131.16992"
       inkscape:label="position dot"
       transform="rotate(15.574577)"
       r="3.7795267" />
    <circle
       style="opacity:1;fill:#000000;fill-opacity:1;stroke:none;stroke-opacity:1"
       id="circle7"
       cx="333.50473"
       cy="137.75261"
       inkscape:label="position dot"
       transform="rotate(15.574577)"
       r="3.7795267" />
    <circle
       style="opacity:1;fill:#000000;fill-opacity:1;stroke:none;stroke-opacity:1"
       id="circle8"
       cx="315.52051"
       cy="155.73685"
       inkscape:label="position dot"
       transform="rotate(15.574577)"
       r="3.7795267" />
    <circle
       style="opacity:1;fill:#000000;fill-opacity:1;stroke:none;stroke-opacity:1"
       id="circle9"
       cx="308.93781"
       cy="180.30377"
       inkscape:label="position dot"
       transform="rotate(15.574577)"
       r="3.7795267" />
    <circle
       style="opacity:1;fill:#000000;fill-opacity:1;stroke:none;stroke-opacity:1"
       id="circle10"
       cx="315.52051"
       cy="204.8707"
       inkscape:label="position dot"
       transform="rotate(15.574577)"
       r="3.7795267" />
    <circle
       style="opacity:1;fill:#000000;fill-opacity:1;stroke:none;stroke-opacity:1"
       id="circle11"
       cx="333.50473"
       cy="222.85492"
       inkscape:label="position dot"
       transform="rotate(15.574577)"
       r="3.7795267" />
    <circle
       style="display:none;opacity:1;fill:#000000;fill-opacity:1;stroke:none;stroke-opacity:1"
       id="circle12"
       cx="358.07166"
       cy="229.43762"
       inkscape:label="position dot"
       transform="rotate(15.574577)"
       r="3.7795267" />
    <circle
       style="display:none;opacity:1;fill:#000000;fill-opacity:1;stroke:none;stroke-opacity:1"
       id="circle13"
       cx="382.63858"
       cy="222.85492"
       inkscape:label="position dot"
       transform="rotate(15.574577)"
       r="3.7795267" />
    <circle
       style="opacity:1;fill:#000000;fill-opacity:1;stroke:none;stroke-opacity:1"
       id="circle14"
       cx="400.6228"
       cy="204.8707"
       inkscape:label="position dot"
       transform="rotate(15.574577)"
       r="3.7795267" />
    <circle
       style="opacity:1;fill:#000000;fill-opacity:1;stroke:none;stroke-opacity:1"
       id="circle15"
       cx="407.20551"
       cy="180.30377"
       inkscape:label="position dot"
       transform="rotate(15.574577)"
       r="3.7795267" />
  </g>
  <g
     inkscape:groupmode="layer"
     id="layer3"
     inkscape:label="twist">
    <circle
       style="opacity:1;fill:none;stroke:#000000"
       id="circle1"
       cx="436.34583"
       cy="269.82288"
       r="13.228343"
       inkscape:label="cutout" />
  </g>
</svg>
